<svg xmlns="http://www.w3.org/2000/svg" viewBox="0 0 1662.77 1920">
  <defs>
    <clipPath id="a" transform="translate(-128.62)">
      <path fill="none" d="M0 0h1920v1920H0z"/>
    </clipPath>
  </defs>
  <path fill="#fff" d="M1640.77 1427.3V492.7L831.38 25.4 22 492.7v934.6l809.38 467.3 809.39-467.3z"/>
  <g clip-path="url(#a)">
    <path fill="none" stroke="#3b91db" stroke-width="44" d="M1640.77 1427.3V492.7L831.38 25.4 22 492.7v934.6l809.38 467.3 809.39-467.3z"/>
  </g>
  <path fill="#fff" d="M1579.83 1392.11V527.89L831.38 95.77 82.94 527.89v864.22l748.44 432.12 748.45-432.12z"/>
  <path fill="none" stroke="#3b91db" stroke-width="8" d="M1579.83 1392.11V527.89L831.38 95.77 82.94 527.89v864.22l748.44 432.12 748.45-432.12z"/>
  <g fill="none" stroke="#3b91db" stroke-miterlimit="10" stroke-width="5" clip-path="url(#a)">
    <path d="M594.77 517.9c-8.12.32-15.79 5-15.72 18.21.11 15.52 7.32 23.54 19 32.29 24.31 19 44.27 24.18 97.62 29.8 4.21.36 6.43-.29 6.62 1.65 0 2-4.85 2-6.67 2-33-2.8-52.28-6.88-81.85-17.72a195.94 195.94 0 0 1-26.39-14.08c-3.16-2-8.26-3.32-10.76 0-3 4.57-.57 7.53 2.48 11.59 8.5 11.61 51.05 20.33 84.39 23.18 2.17.43 5.62 0 5.79 1.66-.47 1.6-1.82 1.65-6.62 1.65-29.38-.9-43.15-8.67-72.8-12.41-10.92-1-16.48 2.92-16.55 15.72.15 24.8 38.21 32.63 57.09 32.29 17.07.21 45.46-3.71 62.87-8.28 2.57-.55 4.32-.91 5 .83.79 2.72-2.15 2.42-5 3.31-39.9 8.52-47.49 8-65.36 9.11-24.41 1.55-36.13-7.92-46.32-8.28-3.87-.12-5.79.36-5.8 5 .39 12.89 26.83 13.82 45.51 14.07 15.26-.12 33.61-3.17 49.63-7.45 1.51-.59 2.52-.78 3.75.67-.17 2.25-1.9 2.5-3.75 2.64-25.72 7.68-48.6 8.73-74.45 7.45-12.66-1.14-19 2.62-19 12.42.18 15.71 14.45 23.29 39.71 24 31.82-1.46 65.57-12.35 91-28.14 2-1.63 4.37-3.14 5.79-1.66.69 2.14-1.79 3-3.31 4.14-24 15.07-61.14 32.27-96.79 32.29-20.66.13-29.86-9.48-30.61 1.65-.14 6.06 6.77 9.83 23.16 9.94 29.19-.17 64.56-12.95 93.59-28 1.56-1 2.55-1.61 4-.1-.05 2.56-1.73 2.1-3.31 3.31-31.22 18.27-58.23 23.9-89.74 30.37-6.77 2.09-13.56 5.33-13.68 13.51 0 8.07 9.28 19.43 31.44 19 23-.19 44.06-5.56 67.84-19.87 17.33-10.58 37.34-30.22 50.6-48.35 1.6-2.2 2.79-3.8 4-3 .84.87.6 1.81-1.65 5-13.37 18.57-34.29 43.52-58.74 57.12-6.56 3.4-13.26 5.36-13.24 9.93 0 6.49 6.86 7.38 12.41 4.14 20-11.3 40.6-35.22 56.26-55.46 1.09-1.41 1.71-3.35 3.31-2.48.71 1.12.07 3.93-1.66 5.79-13.55 19.37-28.63 32.48-29 40.56-.1 4 .81 11.61 14.06 11.59 30 0 41.46-43.13 44.69-61.26.24-2 .6-3.15 1.65-4.14a6.15 6.15 0 0 1 .83 5c-3.79 11.7-10.11 35.45-19.85 48.84-3 5.8-.53 10 3.31 9.94 4.83 0 6.88-2.72 9-5.51 8.19-11.64 11.38-28 14.29-44 .54-1.81.65-3.87 2.38-3.46 1.37.32 1 1.94.83 4.14-1.92 23.95 5 140.89 7 165h71.16c2.07-24.64 8.13-140.7 6.19-165-.2-2.2-.55-3.82.82-4.14 1.74-.41 1.84 1.65 2.38 3.46 2.91 16 6.11 32.37 14.3 44 2.09 2.79 4.13 5.48 9 5.51 3.84 0 7.12-4.14 4.14-9.94-9.75-13.39-17.72-37.14-21.51-48.84-.38-1.74-1-3.53 0-5 1.57-.87 2.54 1.1 3.31 4.14 3.23 18.13 14.68 59.6 44.68 59.61 13.26 0 15-6 14.89-9.94-.31-8.08-14.37-21-29.78-40.56-1.73-1.86-2.36-4.67-1.65-5.79 1.6-.87 2.21 1.07 3.31 2.48 15.66 20.24 36.27 42.51 56.25 53.81 5.56 3.24 12.43 2.34 12.41-4.14 0-4.57-6.67-6.53-13.23-9.94-24.46-13.6-45.38-38.54-58.74-57.12-2.26-3.16-2.5-4.1-1.66-5 1.22-.83 2.4.78 4 3 13.25 18.14 31.61 37.77 48.94 48.35 23.78 14.31 44.81 19.68 67.84 19.87 22.16.39 33.89-12.62 33.92-20.69s-9.38-11.42-16.16-13.51c-31.51-6.47-56.87-10.45-88.08-28.71-1.58-1.21-3.26-.76-3.31-3.32 1.48-1.5 2.48-.84 4 .11 29 15.1 64.41 26.22 93.59 26.38 16.39-.1 23.3-3.87 23.17-9.93-.76-11.13-9.95-1.52-30.62-1.65-35.64 0-72.77-15.56-96.79-30.63-1.51-1.16-4-2-3.31-4.14 1.43-1.49 3.78 0 5.79 1.65 25.44 15.79 57.53 26.68 89.35 28.15 25.26-.71 40.36-8.29 40.54-24-.06-9.79-7.2-14.38-19.86-13.24-25.85 1.28-48.73 1.05-74.45-6.63-1.85-.13-3.58-.39-3.75-2.64 1.23-1.44 2.24-1.26 3.75-.67 16 4.29 34.37 5.68 49.63 5.8 18.69-.25 45.12-.35 45.51-13.25 0-4.61-1.93-5.09-5.79-5-10.2.37-24.35 9.76-48.76 8.21-17.87-1.14-23 .32-62.93-8.21-2.82-.88-5.76-.58-5-3.31.64-1.73 2.39-1.38 5-.82 17.41 4.56 45.81 7.66 62.87 7.45 18.88.34 56.94-7.49 57.09-32.29-.07-12.8-5.63-16.69-16.55-15.73-29.65 3.75-43.42 12.35-72.8 13.25-4.8 0-7-.06-7.45-1.66.17-1.68 4.45-1.23 6.62-1.65 33.34-2.85 75.89-13.23 84.39-24.84 3.05-4.06 5.49-6.4 2.48-11.59-2.5-3.32-7.6-2-10.76 0-8.23 5.37-17.16 11.52-26.47 15.73-29.57 10.84-48.84 14.93-81.85 17.72-1.82 0-6.66 0-6.67-2 .19-1.94 2.41-1.3 6.62-1.66 54.29-6.55 74.87-12.14 97.62-31.45 11.71-8.75 18.09-15.12 18.2-30.63.1-19.29-15-22.59-26.29-16.59-34.77 25.57-55.74 38.12-91.29 49.39-1.52.37-2.89.64-3.21-.52s.88-1.24 2.2-1.91c12.9-5 27.07-11.4 35.16-19.41 3.87-4.27 10.88-14.68 6.52-19.45-9.64-5.45-17.59 12-24 18.42-10.64 9.08-20.78 14.91-33.92 22.35-1.17.36-2.57 1-3.31 0-.4-.71.65-1.7 1.65-2.48 8.19-5.12 17-10.11 20.35-17.93 3.11-6.46 4.33-17.71-1.32-21-5.59-3-10.41-1.18-14.06 4.14-6 9.5-8.73 21.89-19 30.63-7.26 6.17-29.9 10-30.61 24.83-.18 11.13 11.35 14.48 9.1 27.32 3.46-.73 4.32-3.29 5-6.62 11.82 20.84-2.89 44.22-33.1 38.08 3.21-1.09 5.7-1.58 8.28-3.31-16.51-1.34-28.23-16.55-30.61-24 3.11.76 7.64 2.55 10.75 3.31-6.31-8.44-11.8-13-12.41-26.49.32-26.1 14.63-40.12 40.1-45.81-6.16-1.45-12.54-.71-15.28-.55 5-9.87 34.23-15.6 35.57-5 2.85 0 4.31-4.22 4.14-8.28-.19-9.75-10.27-9.69-21.51-9.11 1.53-6.93-7-9-11.58-9.1-13.55 1.2-22.9 6.42-38.88 7.45 1.79 4.5 6.69 5.15 11.58 5.79-11.53 6.11-21.38 12.06-24.82 21.52 4.65-1.72 5.77-3.75 9.1-3.31-7.12 7.59-11.66 11.2-15.72 33.12-4.23-16.22-6.82-23.83-16.55-33.48l9.65 3.37c-12.27-17.85-16.55-15.43-24.54-21.22 5.33-.11 7.74-1.68 11.22-5.4-19.12-2.57-25.67-6.11-38.52-7-6.19-.13-12.83.73-13 8.83-9.1.42-21.64-1.34-20.65 10.21.25 3.11 2 7.37 3.87 8.26 5.68-13.52 29.44-4.46 36.81 3.48-1.92.31-11.45-2.05-16.08 1.37 19.93 3.62 33.88 13.51 38.75 32.46 2.61 13.45.5 29.59-9.92 38.09 4.25.37 6.81-.28 9.92-2.49-2.48 11.5-11.81 21.93-29.88 24.24a23.6 23.6 0 0 0 8.38 3.91c-27.65 8.31-47-19.16-33.1-39.74-.8 6.13.89 8.38 5 9.11-1.75-12.63 8.2-16.58 8.27-27.32s-3.22-10-6.33-12.47c-8.79-6.46-15.31-6.09-24.28-12.37-10.3-8.74-14.64-22.78-20.68-32.28-2.63-4.29-8.06-5-12.41-2.48-6.58 5.23-5.39 12.16-1.66 19.86 3.34 7.83 12.5 13.93 20.69 19 1 .79 2 1.78 1.65 2.49-.74 1-2.14.36-3.31 0-13.14-7.45-23.28-13.27-33.92-22.35-8.19-6.4-16-23.67-24-18.22-4.36 4.77.47 15.6 8.27 20.7 9.75 8 20.48 13 33.38 18 1.33.67 2.39.88 2.2 1.92s-3.34.89-4.86.51c-17.78-5.63-29.92-10.57-43.95-17.9-20.37-9.82-40.86-32.38-57.11-33.14z"/>
    <path d="M781.31 527c-.22 1.32-2 2.09-4 1.72s-3.45-1.75-3.22-3.08 2-2.09 4-1.72 3.44 1.71 3.22 3.08zM881.45 526.55c.22 1.32 2 2.09 4 1.72s3.46-1.75 3.23-3.07-2-2.1-4-1.72-3.45 1.75-3.23 3.07z"/>
  </g>
  <path fill="#fff" d="M680.94 838.02h74.08v325.47h-74.08z"/>
  <path fill="none" stroke="#3b91db" stroke-width="5" d="M680.94 838.02h74.08v325.47h-74.08z"/>
  <path fill="#3b91db" d="M712.82 866.38h11.13V892h-11.13z"/>
  <g clip-path="url(#a)">
    <path fill="#fff" d="M795.3 838v76.11h74.88V838H795.3"/>
    <path fill="none" stroke="#3b91db" stroke-width="5" d="M795.3 838v76.11h74.88V838z"/>
  </g>
  <path fill="#fff" d="M908.6 838.02h73.27v325.47H908.6z"/>
  <path fill="none" stroke="#3b91db" stroke-width="5" d="M908.6 838.02h73.27v325.47H908.6z"/>
  <g clip-path="url(#a)">
    <path fill="#fff" d="M763.94 829.87v-56.35H746.5v27h-18.81v-27h-21v27h-18.42v-27h-17.61v56.3l8.76 9.84h76.31l8.21-9.79"/>
    <path fill="none" stroke="#3b91db" stroke-width="5" d="M763.94 829.87v-56.35H746.5v27h-18.81v-27h-21v27h-18.42v-27h-17.61v56.3l8.76 9.84h76.31z"/>
  </g>
  <path fill="#3b91db" d="M940.48 866.38h11.13V892h-11.13z"/>
  <g clip-path="url(#a)">
    <path fill="#fff" d="M879.87 829.87v-56.35h-17.44v27h-18.81v-27h-21v27H804.2v-27h-17.61v56.3l8.76 9.84h76.31l8.21-9.79"/>
    <path fill="none" stroke="#3b91db" stroke-width="5" d="M879.87 829.87v-56.35h-17.44v27h-18.81v-27h-21v27H804.2v-27h-17.61v56.3l8.76 9.84h76.31z"/>
    <path fill="#fff" d="M992.1 829.87v-56.35h-17.43v27h-18.82v-27h-21v27h-18.41v-27h-17.62v56.3l8.76 9.84h76.31l8.21-9.79"/>
    <path fill="none" stroke="#3b91db" stroke-width="5" d="M992.1 829.87v-56.35h-17.43v27h-18.82v-27h-21v27h-18.41v-27h-17.62v56.3l8.76 9.84h76.31z"/>
  </g>
  <path fill="#fff" d="M907.04 1149.51v-282h-11.31v26.72H882.1v-26.72h-20.93v26.72H842.4v-26.72h-20.93v26.72h-17.96v-26.72h-20.12v26.72H768v-26.72h-11.34v282h150.38z"/>
  <path fill="none" stroke="#3b91db" stroke-width="5" d="M907.04 1149.51v-282h-11.31v26.72H882.1v-26.72h-20.93v26.72H842.4v-26.72h-20.93v26.72h-17.96v-26.72h-20.12v26.72H768v-26.72h-11.34v282h150.38zM785.9 828.86h94.87M898.06 828.86h94.87M669.54 828.86h94.86"/>
  <path fill="#fff" d="M1191.85 683.38l-97.29 704.97 63.89 8.96 99.36-704.68-65.96-9.25z"/>
  <path fill="none" stroke="#3b91db" stroke-width="8" d="M1191.85 683.38l-97.29 704.97 63.89 8.96 99.36-704.68-65.96-9.25z"/>
  <path fill="#fff" d="M1249.25 453.04l-33.27 233.97 18.11 1.78 33.27-233.97-18.11-1.78z"/>
  <path fill="none" stroke="#3b91db" stroke-width="8" d="M1249.25 453.04l-33.27 233.97 18.11 1.78 33.27-233.97-18.11-1.78z"/>
  <path fill="#fff" d="M1153.8 767.53l-3.58 25.73 117.03 16.6 3.59-25.73-117.04-16.6z"/>
  <path fill="none" stroke="#3b91db" stroke-width="8" d="M1153.8 767.53l-3.58 25.73 117.03 16.6 3.59-25.73-117.04-16.6z"/>
  <path fill="#fff" d="M1122.04 855.32l-3.72 26.67 155.13 21.98 3.72-26.67-155.13-21.98z"/>
  <path fill="none" stroke="#3b91db" stroke-width="8" d="M1122.04 855.32l-3.72 26.67 155.13 21.98 3.72-26.67-155.13-21.98z"/>
  <path fill="#fff" d="M1261.33 1020.85l-166.38-23.43-32.74 51.53 15.34 43 177.21 24.96 26.58-37.1-20.01-58.96z"/>
  <path fill="none" stroke="#3b91db" stroke-width="8" d="M1261.33 1020.85l-166.38-23.43-32.74 51.53 15.34 43 177.21 24.96 26.58-37.1-20.01-58.96zM1065.86 1048.59l211.91 31.09"/>
  <path fill="#fff" d="M362.77 458.38l90.48 641.59 19.65-2.75-90.49-641.59-19.64 2.75z"/>
  <path fill="none" stroke="#3b91db" stroke-width="8" d="M362.77 458.38l90.48 641.59 19.65-2.75-90.49-641.59-19.64 2.75z"/>
  <path fill="#fff" d="M406.3 452.26l90.49 641.59 19.64-2.75-90.49-641.58-19.64 2.74z"/>
  <path fill="none" stroke="#3b91db" stroke-width="8" d="M406.3 452.26l90.49 641.59 19.64-2.75-90.49-641.58-19.64 2.74z"/>
  <path fill="#fff" d="M449.83 446.15l90.49 641.58 19.64-2.74-90.48-641.59-19.65 2.75z"/>
  <path fill="none" stroke="#3b91db" stroke-width="8" d="M449.83 446.15l90.49 641.58 19.64-2.74-90.48-641.59-19.65 2.75z"/>
  <path fill="#fff" d="M425.589 1080.954l155.438-21.873 54.267 385.64-155.439 21.874z"/>
  <path fill="none" stroke="#3b91db" stroke-width="8" d="M425.589 1080.954l155.438-21.873 54.267 385.64-155.439 21.874z"/>
  <path fill="#fff" d="M425.55 1081.11l6.65 47.56 155.56-21.96-6.66-47.57-155.55 21.97z"/>
  <path fill="none" stroke="#3b91db" stroke-width="8" d="M425.55 1081.11l6.65 47.56 155.56-21.96-6.66-47.57-155.55 21.97z"/>
  <path fill="#fff" d="M422.99 1011.4l3.89 27.84 141.34-20.02-3.89-27.84-141.34 20.02z"/>
  <path fill="none" stroke="#3b91db" stroke-width="8" d="M422.99 1011.4l3.89 27.84 141.34-20.02-3.89-27.84-141.34 20.02z"/>
  <path fill="#fff" d="M399.07 841.21l3.89 27.84 141.34-20.02-3.89-27.85-141.34 20.03z"/>
  <path fill="none" stroke="#3b91db" stroke-width="8" d="M399.07 841.21l3.89 27.84 141.34-20.02-3.89-27.85-141.34 20.03z"/>
  <path fill="#fff" d="M375.15 671.01l3.89 27.85 141.34-20.03-3.88-27.84-141.35 20.02z"/>
  <path fill="none" stroke="#3b91db" stroke-width="8" d="M375.15 671.01l3.89 27.85 141.34-20.03-3.88-27.84-141.35 20.02z"/>
  <path fill="#fff" d="M351.45 502.37l3.89 27.84 141.34-20.02-3.89-27.84-141.34 20.02z"/>
  <path fill="none" stroke="#3b91db" stroke-width="8" d="M351.45 502.37l3.89 27.84 141.34-20.02-3.89-27.84-141.34 20.02z"/>
  <path fill="#fff" d="M567.6 1240.76h527.57v135.22H567.6zM591.78 1135.39l-25.28 101.55h529.77l-25.29-101.55h-479.2z"/>
  <path fill="none" stroke="#3b91db" stroke-width="8" d="M591.78 1135.39l-25.28 101.55h529.77l-25.29-101.55h-479.2z"/>
  <path fill="#fff" d="M653.61 1063.82h355.56v167.91H653.61z"/>
  <path fill="none" stroke="#3b91db" stroke-width="8" d="M653.61 1063.82h355.56v167.91H653.61z"/>
  <path fill="#fff" d="M640.42 1148.25h374.81v83.87H640.42zM669.78 951.78l-16.58 113.01h356.37l-16.58-113.01H669.78z"/>
  <path fill="none" stroke="#3b91db" stroke-width="8" d="M669.78 951.78l-16.58 113.01h356.37l-16.58-113.01H669.78z"/>
  <path fill="#fff" d="M741.24 942.86h180.28v35.11H741.24z"/>
  <path fill="none" stroke="#3b91db" stroke-width="5" d="M741.24 942.86h180.28v35.11H741.24z"/>
  <path fill="#fff" d="M828.44 1038.78l-180.65 108.06h357.94l-177.29-108.06z"/>
  <path fill="none" stroke="#3b91db" stroke-width="8" d="M828.44 1038.78l-180.65 108.06h357.94l-177.29-108.06z"/>
  <path fill="#fff" d="M830.9 1156.74l-126.12 79.63h249.88l-123.76-79.63z"/>
  <path fill="none" stroke="#3b91db" stroke-width="8" d="M830.9 1156.74l-126.12 79.63h249.88l-123.76-79.63z"/>
  <path fill="#fff" d="M845.6 1237.32h15.35v137.95H845.6z"/>
  <path fill="none" stroke="#3b91db" stroke-width="5" d="M845.6 1237.32h15.35v137.95H845.6z"/>
  <path fill="#fff" d="M937.97 1236.2h15.35v137.95h-15.35z"/>
  <path fill="none" stroke="#3b91db" stroke-width="5" d="M937.97 1236.2h15.35v137.95h-15.35z"/>
  <path fill="#fff" d="M707.05 1236.2h15.35v137.95h-15.35z"/>
  <path fill="none" stroke="#3b91db" stroke-width="5" d="M707.05 1236.2h15.35v137.95h-15.35z"/>
  <path fill="#fff" d="M753.24 1236.2h15.35v137.95h-15.35z"/>
  <path fill="none" stroke="#3b91db" stroke-width="5" d="M753.24 1236.2h15.35v137.95h-15.35z"/>
  <path fill="#fff" d="M799.42 1236.2h15.35v137.95h-15.35z"/>
  <path fill="none" stroke="#3b91db" stroke-width="5" d="M799.42 1236.2h15.35v137.95h-15.35z"/>
  <path fill="#fff" d="M891.79 1236.2h15.35v137.95h-15.35z"/>
  <path fill="none" stroke="#3b91db" stroke-width="5" d="M891.79 1236.2h15.35v137.95h-15.35z"/>
  <path fill="none" stroke="#3b91db" stroke-width="10" d="M639.06 1150.62v86.58M1014.34 1150.62v86.58M566.55 1240.76v132.85M1096.22 1240.76v132.85"/>
  <path fill="#fff" d="M1364.08 1346.69l-55.49 70.26 55.49 69.74h-134.64v-140h134.64z"/>
  <path fill="none" stroke="#3b91db" stroke-width="10" d="M1364.08 1346.69l-55.49 70.26 55.49 69.74h-134.64v-140h134.64z"/>
  <path fill="#fff" d="M1292.08 1373.56v151.11l-62.4-24.55v-151.11l62.4 24.55z"/>
  <path fill="none" stroke="#3b91db" stroke-width="10" d="M1292.08 1373.56v151.11l-62.4-24.55v-151.11l62.4 24.55z"/>
  <path fill="#fff" d="M298.69 1346.86l55.49 70.26-55.49 69.74h134.64v-140H298.69z"/>
  <path fill="none" stroke="#3b91db" stroke-width="10" d="M298.69 1346.86l55.49 70.26-55.49 69.74h134.64v-140H298.69z"/>
  <path fill="#fff" d="M370.69 1373.39v148.58l62.4-24.14v-148.59l-62.4 24.15z"/>
  <path fill="none" stroke="#3b91db" stroke-width="10" d="M370.69 1373.39v148.58l62.4-24.14v-148.59l-62.4 24.15z"/>
  <path fill="#fff" d="M371.28 1375.87h920.21v153.3H371.28z"/>
  <path fill="none" stroke="#3b91db" stroke-width="10" d="M371.28 1375.87h920.21v153.3H371.28z"/>
  <g fill="#3b91db" clip-path="url(#a)">
    <path d="M1038.76 1470.65a14.64 14.64 0 0 1-4.86 6.78 12 12 0 0 1-7.3 2.32q-4.73 0-7.37-2a11.39 11.39 0 0 1-3.88-6.23 43.17 43.17 0 0 1-1.25-11.64q0-10.89 3-15.55t9.67-4.67a11.53 11.53 0 0 1 10.06 5.4q3.66 5.4 3.66 14.82a30 30 0 0 1-1.71 10.72m5.28 31.29q5.17-5.58 5.17-16.67v-40.33c0-5.54.1-9.18.29-10.94h-8.35a26.59 26.59 0 0 0-.39 4.08c-.13 2.33-.19 4-.19 5h-.21a16.65 16.65 0 0 0-6.27-7.3 17.66 17.66 0 0 0-9.6-2.56q-10 0-14.74 6.52t-4.79 20.34q0 13.58 4.47 19.89t14.13 6.33a19.1 19.1 0 0 0 10.11-2.59 17.39 17.39 0 0 0 6.69-7.66h.1v9.47q0 15.39-12.11 15.38a12.17 12.17 0 0 1-7.25-2 9.13 9.13 0 0 1-3.59-5.64l-9 1.22a15 15 0 0 0 6.34 9.67q5 3.36 13.19 3.37 10.79 0 16-5.6m-49.68-68.02a61.39 61.39 0 0 0-10-.83 21.21 21.21 0 0 0-7.87 1.3 15 15 0 0 0-5.56 3.86 30.64 30.64 0 0 0-4.79 8h-.24a59.61 59.61 0 0 0-2.34-12.21h-8.35a86.67 86.67 0 0 1 1.88 9.86 70.2 70.2 0 0 1 .65 8.74v34.23h8.79V1462q0-9.13 4.84-15a15.59 15.59 0 0 1 12.69-5.91 61.74 61.74 0 0 1 10.35.93zm-96.63.15v35.21q0 10 4 14.28t12.72 4.32a19.77 19.77 0 0 0 9.89-2.27 19.39 19.39 0 0 0 7-7.74h.14c.07 2.57.12 4.32.17 5.25s.09 1.75.12 2.46.07 1.16.1 1.32h8.3q-.29-2-.29-11.28V1434h-8.84v30.62q0 7.8-3.66 12.1a12.39 12.39 0 0 1-10 4.3q-6.15 0-8.55-3t-2.39-10.57V1434zm-25.11 42.21q-3 5.1-9.55 5.1-7.38 0-10.6-4.93t-3.22-15.13q0-10.85 3.32-16.19t10.6-5.35q6.39 0 9.4 4.91t3 15.85q0 10.63-2.95 15.74m-7.06-43.28q-11.86 0-16.31 9.76h-.19c.13-3 .19-5.55.19-7.66v-20.66h-8.79v61.57c0 5.51-.09 9.13-.29 10.89h8.5c.06-.39.15-1.43.26-3.12s.18-3.32.18-4.89h.09q4.4 9 16.31 9 9.23 0 14.19-6.89t5-20.75q0-27.24-19.09-27.24m-40.28 31.81a15.78 15.78 0 0 0-5.5-4.76q-3.5-1.9-11.45-3.86l-5.81-1.51a15.56 15.56 0 0 1-6.52-2.84 5.88 5.88 0 0 1-2-4.68q0-7.38 12-7.38c3.87 0 6.79.61 8.74 1.81a7.25 7.25 0 0 1 3.47 5.32l7.91-1a14 14 0 0 0-6.4-9.45q-5.13-3.26-13.72-3.25-9.81 0-15 4a13.49 13.49 0 0 0-5.18 11.23 11.69 11.69 0 0 0 1.86 6.77 14.29 14.29 0 0 0 5.32 4.51q3.47 1.82 16.36 5a19.23 19.23 0 0 1 7.32 3.15 6.18 6.18 0 0 1 2.4 5.06q0 8.34-13.19 8.35-7.36 0-10.42-1.93a9.2 9.2 0 0 1-4-6.13l-7.77 1.51a15 15 0 0 0 6.86 9.94q5.25 3.15 15.31 3.15t15.75-4.27a13.94 13.94 0 0 0 5.69-11.8 11.92 11.92 0 0 0-2-7m-70.14-50.37h-9.86v9.38h9.77zm0 19.63h-24.5v6.93h15.58v39h-20.61v6.93h47.95v-6.93h-18.55zm-83.86.05v35.21q0 10 4 14.28t12.72 4.32a19.74 19.74 0 0 0 9.89-2.27 19.39 19.39 0 0 0 7-7.74h.14c.07 2.57.12 4.32.17 5.25s.09 1.75.13 2.46.06 1.16.09 1.32h8.3q-.29-2-.29-11.28V1434h-8.84v30.62q0 7.8-3.66 12.1a12.39 12.39 0 0 1-10 4.3q-6.15 0-8.54-3t-2.4-10.57V1434zm-26.15 38.72q-5 6.49-15.38 6.5h-7.91v-50.64h5.91q11.65 0 17 5.88t5.37 18.78q0 13-5 19.48m6.52-43.72q-7.89-8-24-8h-15.12v65.87h18.07q14 0 21.46-8.71t7.49-24.88q0-16.21-7.88-24.24M700.25 328.52V356c0 11.29 7.22 19 18.64 19h23.34c.52 0 1.41-.93 1.41-2v-11.3c0-1-1.31-1.81-2.35-1.81H721.5c-4.88 0-6.16-2.31-6.16-7.89v-32.3c0-11.38-4.63-15.57-10.26-17.63 5.64-2.07 10.3-6.24 10.3-17.61v-32.54c0-5.48 1.1-7.12 6.16-7.12h20.73a2 2 0 0 0 1.42-1.9v-11.31c0-1-1.32-1.89-2.36-1.89h-22.4c-11.42 0-18.64 7.4-18.64 18.44v30.59s-.37 5.67-.65 7.59c-.71 5.11-7 9.48-10.83 9.42h-5.94c-1 0-1.45.81-1.45 1.85v11.31c0 1 .42 1.93 1.45 1.93h5.42c4.94-.06 11.18 4.1 11.66 10.31.14 1.8.34 7.38.34 7.38M809.68 357.93c0 1-1.35 2-2.39 2H777.6V244.8h29.69c1 0 2.39.84 2.39 1.87zM824.77 373V231.58c0-1-1.36-1.88-2.39-1.88h-58.46c-1 0-1.41.85-1.41 1.89V373c0 1 .37 2 1.41 2h58.46c1 0 2.39-.93 2.39-2M892.09 302.3c0 30.74-13.61 55.93-33.35 57.44V244.88c19.74 1.52 33.35 26.69 33.35 57.42m15.09 0c0-39.13-21-71.12-48.44-72.53v-.07H845c-1 0-1.36.85-1.36 1.89V373c0 1 .33 2 1.36 2h13.74v-.15c27.39-1.41 48.44-33.39 48.44-72.53M978.89 295.74h-28.77c1.48-3.77 3-6.29 3-11.29v-32.53c0-5.48 1-7.12 6-7.12h20.73a2.06 2.06 0 0 0 1.55-1.9v-11.31c0-1-1.45-1.89-2.49-1.89h-22.4c-11.42 0-18.51 7.4-18.51 18.44v30.59a47.42 47.42 0 0 1-1.07 7.59c-1.46 4.94-4.72 7.53-10.54 9.42h-5.93c-1 0-1.32.81-1.32 1.85v11.31c0 1 .28 1.93 1.32 1.93h58.45c1 0 2.49-.89 2.49-1.93v-11.31c0-1-1.45-1.85-2.49-1.85M951.17 310.83h-25.32c7 1.89 9.93 4.38 11.35 10.44a42.85 42.85 0 0 1 .78 7.25V356c0 11.29 7.09 19 18.51 19h23.34a2.15 2.15 0 0 0 1.55-2v-11.3c0-1-1.45-1.81-2.49-1.81H959.1c-4.88 0-6-2.08-6-7.66V319.7a23 23 0 0 0-1.91-8.87M877.03 409.56a36.92 36.92 0 0 0-6-.5 12.61 12.61 0 0 0-4.71.78 9 9 0 0 0-3.34 2.32 18.16 18.16 0 0 0-2.87 4.81h-.15a36.11 36.11 0 0 0-1.41-7.32h-5a50.3 50.3 0 0 1 1.13 5.92 41.84 41.84 0 0 1 .4 5.24v20.54h5.27v-14.88a13.82 13.82 0 0 1 2.9-9 9.36 9.36 0 0 1 7.62-3.54 37.32 37.32 0 0 1 6.21.55zm-39 25.34q-2.05 3.1-6.65 3.1a7.08 7.08 0 0 1-6.33-3.21q-2.11-3.21-2.11-9.36t2.11-9.35c1.41-2.1 3.62-3.16 6.65-3.16s5.15 1 6.49 3.11 2 5.2 2 9.4-.7 7.34-2.08 9.43m4.13-21.76q-3.5-4.08-10.64-4.08-6.79 0-10.5 4.12t-3.72 12.33q0 7.9 3.62 12.19t10.38 4.27q6.94 0 10.62-4.23t3.67-12.23q0-8.27-3.48-12.33m-30.48.67v-4.16h-14.33v-.29a10.14 10.14 0 0 1 .72-4.25 4.35 4.35 0 0 1 2.27-2.2 12.1 12.1 0 0 1 4.6-.67c.92 0 2.27.06 4.06.17s3 .23 3.56.33v-4.25a36 36 0 0 0-3.68-.43 62.6 62.6 0 0 0-4.55-.19q-6.6 0-9.42 2.52t-2.83 8.53v.73h-7.73v4.16h7.68v27.54h5.32v-27.54z"/>
  </g>
</svg>
