<svg xmlns="http://www.w3.org/2000/svg" viewBox="0 0 1662.77 1920">
  <defs>
    <clipPath id="a" transform="translate(-128.62)">
      <path fill="none" d="M0 0h1920v1920H0z"/>
    </clipPath>
  </defs>
  <path fill="#fff" d="M1640.77 1427.3V492.7L831.38 25.4 22 492.7v934.6l809.38 467.3 809.39-467.3z"/>
  <g clip-path="url(#a)">
    <path fill="none" stroke="#3b91db" stroke-width="44" d="M1640.77 1427.3V492.7L831.38 25.4 22 492.7v934.6l809.38 467.3 809.39-467.3z"/>
  </g>
  <path fill="#fff" d="M1579.83 1392.11V527.89L831.38 95.77 82.94 527.89v864.22l748.44 432.12 748.45-432.12z"/>
  <path fill="none" stroke="#3b91db" stroke-width="15" d="M1579.83 1392.11V527.89L831.38 95.77 82.94 527.89v864.22l748.44 432.12 748.45-432.12z"/>
  <g fill="none" stroke="#3b91db" stroke-miterlimit="10" stroke-width="5" clip-path="url(#a)">
    <path d="M641.17 573.72c-6.53.26-12.69 4-12.63 14.63.08 12.46 5.88 18.9 15.29 25.92 19.55 15.26 35.55 19.43 78.48 23.94 3.38.28 5.17-.24 5.32 1.33 0 1.62-3.9 1.61-5.36 1.6-26.54-2.25-42-5.53-65.8-14.23a157.13 157.13 0 0 1-21.28-11.31c-2.54-1.62-6.64-2.67-8.65 0-2.42 3.67-.46 6 2 9.31 6.83 9.32 41 16.33 67.83 18.62 1.75.34 4.52 0 4.66 1.32-.38 1.29-1.46 1.33-5.32 1.33-23.62-.72-34.7-7-58.53-10-8.78-.77-13.25 2.35-13.3 12.63.12 19.92 30.72 26.21 45.89 25.93 13.72.17 36.55-3 50.54-6.65 2.07-.44 3.48-.73 4 .67.64 2.19-1.72 1.94-4 2.66-32.07 6.84-38.17 6.4-52.54 7.31-19.62 1.25-29-6.36-37.24-6.65-3.11-.09-4.65.29-4.66 4 .31 10.36 21.57 11.11 36.58 11.3 12.27-.09 27-2.54 39.91-6 1.21-.47 2-.62 3 .54-.14 1.81-1.53 2-3 2.12-20.68 6.16-39.08 7-59.86 6-10.17-.91-15.25 2.11-15.29 10 .14 12.62 11.61 18.71 31.92 19.28a158.52 158.52 0 0 0 73.16-22.6c1.61-1.31 3.5-2.52 4.65-1.33.56 1.72-1.44 2.39-2.66 3.32-19.31 12.11-49.16 25.92-77.81 25.93-16.61.11-24-7.61-24.61 1.33-.11 4.87 5.45 7.89 18.62 8 23.46-.13 51.9-10.39 75.24-22.52 1.25-.77 2-1.29 3.24-.08 0 2-1.39 1.69-2.66 2.65-25.09 14.67-46.81 19.2-72.14 24.4-5.45 1.67-10.9 4.28-11 10.84s7.45 15.61 25.27 15.29c18.51-.15 35.41-4.46 54.53-15.95 13.94-8.5 30-24.27 40.68-38.83 1.29-1.77 2.24-3.06 3.22-2.39.67.69.48 1.45-1.33 4-10.75 14.91-27.56 34.95-47.22 45.87-5.27 2.73-10.66 4.3-10.64 8 0 5.2 5.51 5.92 10 3.32 16.07-9.07 32.64-28.29 45.23-44.54.88-1.13 1.37-2.69 2.66-2 .57.91.06 3.16-1.33 4.66-10.89 15.56-23 26.08-23.28 32.57-.07 3.2.65 9.32 11.31 9.31 24.12 0 33.32-34.64 35.92-49.2a4.81 4.81 0 0 1 1.33-3.32 4.94 4.94 0 0 1 .67 4c-3 9.39-8.13 28.47-16 39.22-2.39 4.66-.42 8 2.67 8 3.88 0 5.53-2.18 7.21-4.42 6.58-9.35 9.15-22.53 11.49-35.34.43-1.46.52-3.11 1.91-2.79 1.1.26.82 1.56.67 3.33-1.55 19.24 4 113.15 5.63 132.48h57.22c1.67-19.78 6.54-113 5-132.48-.15-1.77-.43-3.07.67-3.33 1.39-.32 1.47 1.33 1.91 2.79 2.34 12.81 4.91 26 11.49 35.34 1.68 2.24 3.33 4.39 7.21 4.42 3.09 0 5.72-3.32 3.33-8-7.83-10.75-14.24-29.83-17.29-39.22-.3-1.4-.83-2.84 0-4 1.26-.7 2.05.88 2.66 3.32 2.6 14.56 11.8 47.86 35.92 47.87 10.66 0 12-4.78 12-8-.25-6.49-11.55-16.85-23.94-32.57-1.39-1.5-1.9-3.75-1.33-4.66 1.29-.69 1.78.87 2.66 2 12.59 16.25 29.16 34.14 45.23 43.21 4.46 2.6 10 1.88 10-3.32 0-3.67-5.37-5.25-10.64-8-19.66-10.92-36.47-31-47.22-45.87-1.81-2.54-2-3.3-1.33-4 1-.67 1.93.62 3.22 2.39 10.66 14.56 25.41 30.33 39.35 38.82 19.12 11.49 36 15.81 54.53 16 17.82.32 27.24-10.14 27.27-16.62s-7.54-9.17-13-10.84c-25.33-5.2-45.72-8.4-70.81-23.06-1.27-1-2.62-.61-2.66-2.66 1.19-1.21 2-.69 3.24.08 23.34 12.12 51.78 21.06 75.24 21.19 13.17-.09 18.73-3.11 18.62-8-.61-8.94-8-1.22-24.61-1.33-28.65 0-58.5-12.49-77.81-24.59-1.22-.94-3.22-1.61-2.66-3.33 1.15-1.19 3 0 4.65 1.33 20.45 12.68 46.25 21.43 71.83 22.6 20.31-.57 32.44-6.65 32.59-19.28 0-7.86-5.79-11.55-16-10.63-20.78 1-39.18.85-59.86-5.32-1.48-.11-2.88-.31-3-2.12 1-1.16 1.8-1 3-.54 12.89 3.44 27.64 4.56 39.91 4.65 15-.19 36.26-.27 36.57-10.63 0-3.7-1.54-4.09-4.65-4-8.2.29-19.57 7.83-39.2 6.58-14.36-.91-18.51.26-50.58-6.58-2.27-.72-4.63-.47-4-2.66.51-1.4 1.92-1.11 4-.67 14 3.67 36.82 6.16 50.54 6 15.17.27 45.77-6 45.89-25.93 0-10.28-4.52-13.4-13.3-12.63-23.84 3-34.91 9.91-58.53 10.63-3.86 0-5.61 0-6-1.32.13-1.36 3.57-1 5.32-1.33 26.79-2.29 61-10.63 67.83-20 2.46-3.26 4.42-5.14 2-9.31-2-2.67-6.11-1.62-8.65 0-6.62 4.32-13.8 9.26-21.28 12.64-23.77 8.7-39.26 12-65.8 14.23-1.46 0-5.35 0-5.36-1.6.15-1.56 1.94-1 5.32-1.33 43.64-5.26 60.19-9.76 78.48-25.27 9.41-7 14.54-12.13 14.63-24.59.08-15.49-12.07-18.15-21.14-13.32-28 20.53-44.8 30.61-73.38 39.66-1.22.3-2.32.51-2.58-.42s.7-1 1.77-1.53c10.36-4 21.75-9.15 28.26-15.58 3.11-3.44 8.74-11.8 5.24-15.63-7.75-4.38-14.14 9.65-19.31 14.79-8.55 7.3-16.7 12-27.27 18-.93.29-2.06.81-2.66 0-.32-.56.53-1.36 1.33-2 6.59-4.11 13.68-8.12 16.36-14.4 2.5-5.19 3.48-14.22-1.06-16.85-4.5-2.42-8.37-1-11.31 3.33-4.85 7.63-7 17.57-15.29 24.59-5.84 5-24 8-24.61 20-.15 8.94 9.12 11.63 7.32 21.94 2.78-.59 3.47-2.64 4-5.32 9.5 16.74-2.32 35.51-26.61 30.58 2.58-.87 4.58-1.27 6.65-2.66-13.26-1.07-22.69-13.29-24.6-19.28 2.5.61 6.14 2 8.64 2.66-5.07-6.78-9.49-10.42-10-21.27.25-21 11.76-32.22 32.23-36.79-4.95-1.16-10.08-.58-12.28-.44 4-7.93 27.51-12.53 28.6-4 2.29 0 3.46-3.39 3.32-6.65-.15-7.83-8.25-7.78-17.29-7.31 1.23-5.57-5.64-7.22-9.31-7.32-10.89 1-18.41 5.17-31.26 6 1.44 3.62 5.38 4.14 9.31 4.65-9.27 4.91-17.18 9.69-19.95 17.29 3.74-1.39 4.64-3 7.32-2.66-5.72 6.09-9.38 9-12.64 26.59-3.4-13-5.49-19.13-13.3-26.88l7.75 2.7c-9.86-14.33-13.31-12.39-19.72-17 4.28-.09 6.22-1.35 9-4.34-15.37-2.06-20.64-4.91-31-5.63-5-.1-10.31.58-10.47 7.08-7.32.34-17.4-1.07-16.61 8.21.2 2.49 1.58 5.91 3.12 6.63 4.65-10.87 23.72-3.6 29.68 2.76-1.55.25-9.21-1.64-12.93 1.1 16 2.91 27.24 10.85 31.15 26.08 2.1 10.79.4 23.75-8 30.58a10.47 10.47 0 0 0 8-2c-2 9.23-9.49 17.62-24 19.47a19 19 0 0 0 6.73 3.14c-22.22 6.67-37.75-15.39-26.6-31.91-.65 4.92.71 6.72 4 7.31-1.4-10.14 6.6-13.31 6.65-21.94s-2.59-8-5.09-10c-7.06-5.19-12.31-4.9-19.52-9.93-8.28-7-11.77-18.3-16.62-25.93-2.11-3.45-6.48-4-10-2-5.29 4.21-4.33 9.77-1.33 16 2.68 6.28 10 11.18 16.63 15.29.8.63 1.65 1.43 1.33 2-.6.81-1.73.29-2.66 0-10.57-6-18.72-10.65-27.27-17.95-6.58-5.14-12.87-19-19.29-14.62-3.5 3.83.38 12.52 6.65 16.62 7.84 6.43 16.47 10.4 26.83 14.42 1.07.53 1.92.7 1.77 1.53s-2.69.72-3.91.42c-14.29-4.53-24-8.49-35.33-14.38-16.31-8.03-32.79-26.15-45.85-26.76z"/>
    <path d="M790.55 580.41c-.14.81-1.36 1.28-2.71 1.05s-2.32-1.07-2.17-1.88 1.36-1.28 2.71-1.05 2.32 1.07 2.17 1.88zM872.21 580.08c.14.81 1.36 1.28 2.71 1s2.32-1.07 2.17-1.88-1.36-1.28-2.71-1-2.32 1.07-2.17 1.88z"/>
  </g>
  <path fill="#fff" d="M710.65 831.67h58.72v261.29h-58.72z"/>
  <path fill="none" stroke="#3b91db" stroke-width="5" d="M710.65 831.67h58.72v261.29h-58.72z"/>
  <path fill="#3b91db" d="M735.85 854.04h8.97v20.64h-8.97z"/>
  <g clip-path="url(#a)">
    <path fill="#fff" d="M802.79 831.67V892h59.37v-60.33h-59.37"/>
    <path fill="none" stroke="#3b91db" stroke-width="5" d="M802.79 831.67V892h59.37v-60.33z"/>
  </g>
  <path fill="#fff" d="M894.09 831.67h58.07v261.29h-58.07z"/>
  <path fill="none" stroke="#3b91db" stroke-width="5" d="M894.09 831.67h58.07v261.29h-58.07z"/>
  <g clip-path="url(#a)">
    <path fill="#fff" d="M776.55 824.44V779.7h-13.08v21.77h-16.09V779.7h-16v21.77h-15.8V779.7h-13.2v44.7l6.79 7.63h61.05l6.35-7.59"/>
    <path fill="none" stroke="#3b91db" stroke-width="5" d="M776.55 824.44V779.7h-13.08v21.77h-16.09V779.7h-16v21.77h-15.8V779.7h-13.2v44.7l6.79 7.63h61.05z"/>
  </g>
  <path fill="#3b91db" d="M919.29 854.04h8.96v20.64h-8.96z"/>
  <g clip-path="url(#a)">
    <path fill="#fff" d="M869.97 824.44V779.7h-13.08v21.77h-16.13V779.7h-16v21.77h-15.8V779.7h-13.19v44.7q3.4 3.81 6.79 7.63h61.05z"/>
    <path fill="none" stroke="#3b91db" stroke-width="5" d="M869.97 824.44V779.7h-13.08v21.77h-16.13V779.7h-16v21.77h-15.8V779.7h-13.19v44.7q3.4 3.81 6.79 7.63h61.05z"/>
    <path fill="#fff" d="M960.38 824.44V779.7H947.3v21.77h-16.13V779.7h-16v21.77h-15.81V779.7h-13.22v44.7l6.79 7.63h61.05l6.35-7.59"/>
    <path fill="none" stroke="#3b91db" stroke-width="5" d="M960.38 824.44V779.7H947.3v21.77h-16.13V779.7h-16v21.77h-15.81V779.7h-13.22v44.7l6.79 7.63h61.05z"/>
  </g>
  <path fill="#fff" d="M893.88 1081.69V855.43h-8.54v21.54h-12.16v-21.54h-16.53v21.54h-16.43v-21.54h-16.53v21.54h-15.76v-21.54h-15.85v21.54h-13.63v-21.54h-8.57v226.26h124z"/>
  <path fill="none" stroke="#3b91db" stroke-width="5" d="M893.88 1081.69V855.43h-8.54v21.54h-12.16v-21.54h-16.53v21.54h-16.43v-21.54h-16.53v21.54h-15.76v-21.54h-15.85v21.54h-13.63v-21.54h-8.57v226.26h124zM794.74 824.16h76.44M885.11 824.16h76.44M700.97 824.16h76.44"/>
  <path fill="#fff" d="M1185.51 684.34l-106.99 686.5 62.06 9.81 108.99-686.18-64.06-10.13z"/>
  <path fill="none" stroke="#3b91db" stroke-width="8" d="M1185.51 684.34l-106.99 686.5 62.06 9.81 108.99-686.18-64.06-10.13z"/>
  <path fill="#fff" d="M1245.48 460.41l-36.44 227.69 17.47 2.02 36.44-227.69-17.47-2.02z"/>
  <path fill="none" stroke="#3b91db" stroke-width="8" d="M1245.48 460.41l-36.44 227.69 17.47 2.02 36.44-227.69-17.47-2.02z"/>
  <path fill="#fff" d="M1146.92 765.86l-3.9 24.87 113.8 18.17 3.91-24.88-113.81-18.16z"/>
  <path fill="none" stroke="#3b91db" stroke-width="8" d="M1146.92 765.86l-3.9 24.87 113.8 18.17 3.91-24.88-113.81-18.16z"/>
  <path fill="#fff" d="M1114.41 851.04l-4.05 25.78 150.91 24.08 4.05-25.79-150.91-24.07z"/>
  <path fill="none" stroke="#3b91db" stroke-width="8" d="M1114.41 851.04l-4.05 25.78 150.91 24.08 4.05-25.79-150.91-24.07z"/>
  <path fill="#fff" d="M1247.43 1015l-161.9-25.68-32.81 49.65 14.24 42.17 172.44 27.36 26.55-35.7-18.52-57.8z"/>
  <path fill="none" stroke="#3b91db" stroke-width="8" d="M1247.43 1015l-161.9-25.68-32.81 49.65 14.24 42.17 172.44 27.36 26.55-35.7-18.52-57.8zM1056.17 1038.77l206.42 33.79"/>
  <path fill="#fff" d="M367.82 476.31l89.16 632.16 19.24-2.7-89.15-632.15-19.25 2.69z"/>
  <path fill="none" stroke="#3b91db" stroke-width="8" d="M367.82 476.31l89.16 632.16 19.24-2.7-89.15-632.15-19.25 2.69z"/>
  <path fill="#fff" d="M410.72 470.28l89.16 632.16 19.24-2.7-89.15-632.15-19.25 2.69z"/>
  <path fill="none" stroke="#3b91db" stroke-width="8" d="M410.72 470.28l89.16 632.16 19.24-2.7-89.15-632.15-19.25 2.69z"/>
  <path fill="#fff" d="M453.62 464.25l89.15 632.16 19.25-2.7-89.15-632.15-19.25 2.69z"/>
  <path fill="none" stroke="#3b91db" stroke-width="8" d="M453.62 464.25l89.15 632.16 19.25-2.7-89.15-632.15-19.25 2.69z"/>
  <path fill="#fff" d="M429.737 1089.843l153.072-21.54 53.463 379.927-153.072 21.54z"/>
  <path fill="none" stroke="#3b91db" stroke-width="8" d="M429.737 1089.843l153.072-21.54 53.463 379.927-153.072 21.54z"/>
  <path fill="#fff" d="M429.69 1089.99l6.54 46.76 153.18-21.63-6.54-46.76-153.18 21.63z"/>
  <path fill="none" stroke="#3b91db" stroke-width="8" d="M429.69 1089.99l6.54 46.76 153.18-21.63-6.54-46.76-153.18 21.63z"/>
  <path fill="#fff" d="M427.17 1021.29l3.81 27.33 139.18-19.72-3.81-27.32-139.18 19.71z"/>
  <path fill="none" stroke="#3b91db" stroke-width="8" d="M427.17 1021.29l3.81 27.33 139.18-19.72-3.81-27.32-139.18 19.71z"/>
  <path fill="#fff" d="M403.6 853.58l3.81 27.32 139.18-19.72-3.82-27.32-139.17 19.72z"/>
  <path fill="none" stroke="#3b91db" stroke-width="8" d="M403.6 853.58l3.81 27.32 139.18-19.72-3.82-27.32-139.17 19.72z"/>
  <path fill="#fff" d="M380.02 685.85l3.82 27.33 139.18-19.72-3.82-27.32-139.18 19.71z"/>
  <path fill="none" stroke="#3b91db" stroke-width="8" d="M380.02 685.85l3.82 27.33 139.18-19.72-3.82-27.32-139.18 19.71z"/>
  <path fill="#fff" d="M356.67 519.66l3.81 27.32 139.18-19.71-3.82-27.33-139.17 19.72z"/>
  <path fill="none" stroke="#3b91db" stroke-width="8" d="M356.67 519.66l3.81 27.32 139.18-19.71-3.82-27.33-139.17 19.72z"/>
  <path fill="#fff" d="M567.6 1240.76h527.57V1440H567.6zM591.78 1135.39l-25.28 101.55h529.77l-25.29-101.55h-479.2z"/>
  <path fill="none" stroke="#3b91db" stroke-width="8" d="M591.78 1135.39l-25.28 101.55h529.77l-25.29-101.55h-479.2z"/>
  <path fill="#fff" d="M653.61 1063.82h355.56v167.91H653.61z"/>
  <path fill="none" stroke="#3b91db" stroke-width="8" d="M653.61 1063.82h355.56v167.91H653.61z"/>
  <path fill="#fff" d="M640.42 1148.25h374.81v83.87H640.42zM669.78 951.78l-16.58 113.01h356.37l-16.58-113.01H669.78z"/>
  <path fill="none" stroke="#3b91db" stroke-width="8" d="M669.78 951.78l-16.58 113.01h356.37l-16.58-113.01H669.78z"/>
  <path fill="#fff" d="M741.24 942.86h180.28v35.11H741.24z"/>
  <path fill="none" stroke="#3b91db" stroke-width="5" d="M741.24 942.86h180.28v35.11H741.24z"/>
  <path fill="#fff" d="M828.44 1038.78l-180.65 108.06h357.94l-177.29-108.06z"/>
  <path fill="none" stroke="#3b91db" stroke-width="8" d="M828.44 1038.78l-180.65 108.06h357.94l-177.29-108.06z"/>
  <path fill="#fff" d="M830.9 1156.74l-126.12 79.63h249.88l-123.76-79.63z"/>
  <path fill="none" stroke="#3b91db" stroke-width="8" d="M830.9 1156.74l-126.12 79.63h249.88l-123.76-79.63z"/>
  <path fill="#fff" d="M845.6 1237.75h15.35v193.45H845.6z"/>
  <path fill="none" stroke="#3b91db" stroke-width="5" d="M845.6 1237.75h15.35v193.45H845.6z"/>
  <path fill="#fff" d="M937.97 1236.2h15.35v195h-15.35z"/>
  <path fill="none" stroke="#3b91db" stroke-width="5" d="M937.97 1236.2h15.35v195h-15.35z"/>
  <path fill="#fff" d="M707.05 1236.2h15.35v195h-15.35z"/>
  <path fill="none" stroke="#3b91db" stroke-width="5" d="M707.05 1236.2h15.35v195h-15.35z"/>
  <path fill="#fff" d="M753.24 1236.2h15.35v195h-15.35z"/>
  <path fill="none" stroke="#3b91db" stroke-width="5" d="M753.24 1236.2h15.35v195h-15.35z"/>
  <path fill="#fff" d="M799.42 1236.2h15.35v193.45h-15.35z"/>
  <path fill="none" stroke="#3b91db" stroke-width="5" d="M799.42 1236.2h15.35v193.45h-15.35z"/>
  <path fill="#fff" d="M891.79 1236.2h15.35v195h-15.35z"/>
  <path fill="none" stroke="#3b91db" stroke-width="5" d="M891.79 1236.2h15.35v195h-15.35z"/>
  <path fill="none" stroke="#3b91db" stroke-width="10" d="M639.06 1150.62v86.58M1014.34 1150.62v86.58M566.55 1240.76v132.85M1096.22 1240.76v132.85"/>
  <path fill="#fff" d="M1295.82 1358.71l-58.13 71.39 58.13 70.85h-238.07v-142.24h238.07z"/>
  <path fill="none" stroke="#3b91db" stroke-width="10" d="M1295.82 1358.71l-58.13 71.39 58.13 70.85h-238.07v-142.24h238.07z"/>
  <path fill="#fff" d="M1121.53 1385.99v153.54l-63.21-24.95v-153.54l63.21 24.95z"/>
  <path fill="none" stroke="#3b91db" stroke-width="10" d="M1121.53 1385.99v153.54l-63.21-24.95v-153.54l63.21 24.95z"/>
  <path fill="#fff" d="M366.95 1358.88l58.13 71.39-58.13 70.86h238.06v-142.25H366.95z"/>
  <path fill="none" stroke="#3b91db" stroke-width="10" d="M366.95 1358.88l58.13 71.39-58.13 70.86h238.06v-142.25H366.95z"/>
  <path fill="#fff" d="M543.08 1385.81v150.98l63.2-24.53v-150.98l-63.2 24.53z"/>
  <path fill="none" stroke="#3b91db" stroke-width="10" d="M543.08 1385.81v150.98l63.2-24.53v-150.98l-63.2 24.53z"/>
  <path fill="#fff" d="M541.49 1388.33h582.34v155.75H541.49z"/>
  <path fill="none" stroke="#3b91db" stroke-width="10" d="M541.49 1388.33h582.34v155.75H541.49z"/>
  <g fill="#3b91db" clip-path="url(#a)">
    <path d="M996.77 1460.78q4-5.07 11.2-5.07 9 0 13.54 7.48V1487q-4.35 7.67-13.64 7.67-7.17 0-11.15-5t-4-13.87q0-9.94 4-15m-7.67 34.11a20.32 20.32 0 0 0 16.32 7.39q10.2 0 16.09-6.18v4.49q0 6.66-4 10.32t-11.17 3.67a19.9 19.9 0 0 1-15.45-7.09l-5.1 5.35a20.64 20.64 0 0 0 9.08 6.61 32 32 0 0 0 12.16 2.42q11.14 0 17.75-5.84t6.61-16v-51h-9l-.48 5.79q-5.9-6.75-16.4-6.75-10.25 0-16.45 7.21t-6.21 19.42q0 12.74 6.23 20.12m-10.44-46.08a11 11 0 0 0-4.36-.67 15.66 15.66 0 0 0-13.69 7l-.16-6h-9.55v52.21h9.82v-37.06q3.45-7.47 13.11-7.48a33.07 33.07 0 0 1 4.83.34zm-50 52.5h9.34v-52.16h-9.82v38q-3.71 7.62-15 7.62-10.62 0-10.62-11.87v-33.75h-9.82v34q.06 9.51 4.86 14.36t14 4.85q11.1 0 16.83-6.13zm-59.9-11.58q-3.93 5-11 5-9.55 0-14.06-8.2v-22.59q4.24-8.19 14-8.2 7.26 0 11.14 5t3.88 14.09q0 10-3.93 15m13.75-14.72q0-12.49-6-19.68t-16.43-7.19q-10.46 0-16.4 6.7v-27.65h-9.82v74.12h9l.48-6q5.94 7 16.82 7 10.2 0 16.25-7.27t6-19.22zm-72.39 17.93a17.05 17.05 0 0 1-8.94 2q-6.06 0-9.74-2.63a9 9 0 0 1-4-7.12h-9.72a14.05 14.05 0 0 0 3 8.62 19.6 19.6 0 0 0 8.31 6.2 31.44 31.44 0 0 0 12.21 2.22q9.81 0 16-4.23t6.16-11.21a11.46 11.46 0 0 0-2.2-7.12 17.22 17.22 0 0 0-6.77-5 57 57 0 0 0-11.91-3.57c-4.91-1-8.29-2-10.17-3.13a5.3 5.3 0 0 1-2.81-4.88 6.52 6.52 0 0 1 3-5.55c2-1.41 4.81-2.12 8.39-2.12a13.69 13.69 0 0 1 8.62 2.65 7.81 7.81 0 0 1 3.43 6.33h9.87a14.11 14.11 0 0 0-6.08-11.73q-6.08-4.59-15.84-4.58-9.29 0-15.26 4.44t-6 10.85a10.81 10.81 0 0 0 2.09 6.66 16.56 16.56 0 0 0 6.48 4.83 52.71 52.71 0 0 0 11.84 3.47q7.46 1.45 10.45 3.45a6.39 6.39 0 0 1 3 5.62 6.19 6.19 0 0 1-3.37 5.48m-51.91-54.07a5.86 5.86 0 0 0 4.32 1.45 6 6 0 0 0 4.36-1.45 4.83 4.83 0 0 0 1.48-3.62 5 5 0 0 0-1.48-3.66 5.9 5.9 0 0 0-4.36-1.5 5.76 5.76 0 0 0-4.32 1.5 5 5 0 0 0-1.46 3.66 4.85 4.85 0 0 0 1.46 3.62m9.17 10.23h-9.82v52.21h9.82zm-32.5 52.21h9.34v-52.21h-9.84v38q-3.71 7.62-15 7.62-10.62 0-10.62-11.87v-33.75h-9.82v34q0 9.51 4.86 14.36t14 4.85q11.1 0 16.83-6.13zm-81.42-62.68q11.35.09 17.54 6.74t6.19 18.62v4.1q0 12.32-6.56 19t-18.34 6.67h-10.72v-55.11zm-.69 62.68a40.28 40.28 0 0 0 18.23-4.1 28.31 28.31 0 0 0 12-11.48 34.81 34.81 0 0 0 4.22-17.42v-4.49a34.73 34.73 0 0 0-4.27-17.18 28.63 28.63 0 0 0-12-11.53 38 38 0 0 0-17.83-4.06h-21.74v70.26zM700.25 357.57v27.5c0 11.28 7.22 19 18.64 19h23.34c.52 0 1.41-.93 1.41-2v-11.31c0-1-1.31-1.82-2.35-1.82H721.5c-4.88 0-6.16-2.3-6.16-7.88v-32.3c0-11.38-4.63-15.57-10.26-17.63 5.64-2.06 10.26-6.24 10.26-17.62V281c0-5.48 1.1-7.12 6.16-7.12h20.73a2 2 0 0 0 1.42-1.89v-11.35c0-1-1.32-1.88-2.36-1.88h-22.4c-11.42 0-18.64 7.39-18.64 18.43v30.6s-.37 5.66-.65 7.59c-.71 5.1-7 9.47-10.83 9.41h-5.94c-1 0-1.45.82-1.45 1.86V338c0 1 .42 1.93 1.45 1.93h5.42c4.94-.07 11.18 4.09 11.66 10.3.14 1.8.34 7.38.34 7.38M809.68 387c0 1-1.35 2-2.39 2H777.6V273.85h29.69c1 0 2.39.84 2.39 1.88zm15.09 15.09V260.64c0-1-1.36-1.88-2.39-1.88h-58.46c-1 0-1.41.85-1.41 1.88v141.43c0 1 .37 2 1.41 2h58.46c1 0 2.39-.93 2.39-2M892.09 331.36c0 30.74-13.61 55.92-33.35 57.44V273.94c19.74 1.51 33.35 26.68 33.35 57.42m15.09 0c0-39.14-21-71.12-48.44-72.54v-.06H845c-1 0-1.36.85-1.36 1.88v141.43c0 1 .33 2 1.36 2h13.74v-.15c27.39-1.42 48.44-33.4 48.44-72.53M978.89 324.79h-28.77c1.48-3.77 3-6.29 3-11.28V281c0-5.48 1-7.12 6-7.12h20.73a2.05 2.05 0 0 0 1.53-1.88v-11.36c0-1-1.45-1.88-2.49-1.88h-22.4c-11.42 0-18.51 7.39-18.51 18.43v30.6a47.2 47.2 0 0 1-1.07 7.58c-1.46 4.94-4.72 7.54-10.54 9.42h-5.93c-1 0-1.32.82-1.32 1.85V338c0 1 .28 1.93 1.32 1.93h58.45c1 0 2.49-.9 2.49-1.93v-11.36c0-1-1.45-1.85-2.49-1.85"/>
    <path d="M951.17 339.89h-25.32c7 1.89 9.93 4.38 11.35 10.44a42.68 42.68 0 0 1 .78 7.24v27.5c0 11.28 7.09 19 18.51 19h23.34a2.15 2.15 0 0 0 1.55-2v-11.31c0-1-1.45-1.82-2.49-1.82H959.1c-4.88 0-6-2.07-6-7.65v-32.53a23 23 0 0 0-1.91-8.87M877.03 445.7a36.91 36.91 0 0 0-6-.49 12.63 12.63 0 0 0-4.71.77 9 9 0 0 0-3.34 2.32 18.08 18.08 0 0 0-2.87 4.82h-.15a36.2 36.2 0 0 0-1.41-7.33h-5a50.3 50.3 0 0 1 1.13 5.92 41.84 41.84 0 0 1 .4 5.24v20.54h5.27v-14.88a13.84 13.84 0 0 1 2.9-9 9.36 9.36 0 0 1 7.62-3.54 37.38 37.38 0 0 1 6.21.56zm-39 25.35q-2.09 3.13-6.74 3.13a7.08 7.08 0 0 1-6.33-3.21q-2.11-3.21-2.11-9.36t2.11-9.34c1.41-2.11 3.62-3.17 6.65-3.17s5.15 1 6.49 3.11 2 5.2 2 9.4-.7 7.35-2.08 9.44m4.13-21.77q-3.5-4.08-10.64-4.07-6.79 0-10.5 4.11t-3.63 12.29q0 7.92 3.62 12.19t10.38 4.28q6.94 0 10.62-4.24t3.67-12.23q0-8.26-3.48-12.33m-30.48.67v-4.16h-14.33v-.29a10.17 10.17 0 0 1 .72-4.25 4.35 4.35 0 0 1 2.27-2.2 12.1 12.1 0 0 1 4.6-.67c.92 0 2.27.06 4.06.18s3 .22 3.56.32v-4.25a36 36 0 0 0-3.68-.43 62.6 62.6 0 0 0-4.55-.19q-6.6 0-9.42 2.52c-1.89 1.68-2.83 4.53-2.83 8.53v.73h-7.73V450h7.68v27.54h5.32V450z"/>
  </g>
  <path fill="none" stroke="#3b91db" stroke-width="15" d="M82.42 960h200M82.42 889.13h150M82.42 1030.87h150M1579.61 960h-200M1579.61 889.13h-150M1579.61 1030.87h-150"/>
</svg>
