<svg xmlns="http://www.w3.org/2000/svg" viewBox="0 0 1662.77 1920">
  <defs>
    <clipPath id="a" transform="translate(-128.62)">
      <path fill="none" d="M0 0h1920v1920H0z"/>
    </clipPath>
  </defs>
  <path fill="#fff" d="M1640.77 1427.3V492.7L831.38 25.4 22 492.7v934.6l809.38 467.3 809.39-467.3z"/>
  <g clip-path="url(#a)">
    <path fill="none" stroke="#3b91db" stroke-width="44" d="M1640.77 1427.3V492.7L831.38 25.4 22 492.7v934.6l809.38 467.3 809.39-467.3z"/>
  </g>
  <path fill="#fff" d="M1579.83 1392.11V527.89L831.38 95.77 82.94 527.89v864.22l748.44 432.12 748.45-432.12z"/>
  <path fill="none" stroke="#3b91db" stroke-width="15" d="M1579.83 1392.11V527.89L831.38 95.77 82.94 527.89v864.22l748.44 432.12 748.45-432.12z"/>
  <g clip-path="url(#a)">
    <path fill="none" stroke="#3b91db" stroke-miterlimit="10" stroke-width="5" d="M615.51 534.67c-7.42.29-14.41 4.52-14.35 16.61.1 14.15 6.68 21.47 17.36 29.44 22.18 17.34 40.39 22.06 89.07 27.18 3.84.33 5.87-.26 6 1.51 0 1.85-4.42 1.83-6.09 1.82-30.11-2.55-47.7-6.27-74.67-16.16a179 179 0 0 1-24.16-12.84c-2.88-1.84-7.53-3-9.81 0-2.75 4.17-.52 6.87 2.26 10.57 7.76 10.59 46.58 18.55 77 21.14 2 .39 5.14 0 5.29 1.51-.43 1.47-1.66 1.51-6 1.51-26.8-.82-39.37-7.9-66.42-11.32-10-.88-15 2.67-15.1 14.34.14 22.62 34.86 29.76 52.08 29.45 15.58.19 41.48-3.38 57.37-7.55 2.34-.51 3.94-.83 4.53.75.72 2.49-2 2.21-4.53 3-36.41 7.78-43.33 7.27-59.63 8.31-22.28 1.42-33-7.22-42.27-7.55-3.53-.11-5.28.33-5.29 4.53.36 11.76 24.48 12.61 41.52 12.83 13.92-.1 30.67-2.88 45.29-6.79 1.38-.54 2.29-.71 3.42.61-.16 2-1.73 2.29-3.42 2.41-23.47 7-44.35 8-67.93 6.79-11.55-1-17.31 2.4-17.37 11.33.17 14.33 13.19 21.24 36.24 21.89 29-1.33 59.82-11.27 83-25.67 1.84-1.48 4-2.86 5.29-1.51.63 2-1.64 2.72-3 3.78-21.92 13.76-55.81 29.41-88.32 29.46-18.86.12-27.25-8.64-27.93 1.51-.13 5.53 6.18 9 21.13 9.06 26.63-.15 58.9-11.8 85.39-25.57 1.42-.87 2.33-1.47 3.68-.1 0 2.34-1.58 1.92-3 3-28.48 16.66-53.12 21.8-81.87 27.7-6.18 1.91-12.37 4.86-12.48 12.32s8.46 17.72 28.68 17.36c21-.17 40.2-5.07 61.9-18.12 15.81-9.65 34.07-27.56 46.16-44.09 1.47-2 2.55-3.47 3.65-2.72.77.79.55 1.65-1.51 4.53-12.19 16.94-31.28 39.69-53.59 52.1-6 3.1-12.09 4.89-12.07 9.06 0 5.91 6.25 6.73 11.32 3.77 18.23-10.3 37-32.12 51.33-50.58 1-1.28 1.56-3.06 3-2.27.65 1 .07 3.59-1.51 5.29-12.36 17.67-26.12 29.62-26.41 37-.09 3.63.73 10.58 12.83 10.57 27.38 0 37.82-39.33 40.77-55.87.22-1.83.55-2.87 1.51-3.77a5.58 5.58 0 0 1 .75 4.53c-3.46 10.66-9.22 32.33-18.11 44.54-2.72 5.29-.48 9.09 3 9.06 4.41 0 6.28-2.48 8.18-5 7.48-10.62 10.39-25.58 13.05-40.14.49-1.65.59-3.53 2.17-3.16 1.25.29.93 1.77.75 3.78-1.75 21.85 4.55 128.5 6.4 150.45h64.94c1.89-22.47 7.41-128.32 5.64-150.45-.18-2-.5-3.49.75-3.78 1.58-.37 1.68 1.51 2.17 3.16 2.66 14.56 5.57 29.52 13.05 40.14 1.9 2.54 3.77 5 8.18 5 3.5 0 6.49-3.77 3.78-9.06-8.9-12.21-16.17-33.88-19.63-44.54-.34-1.59-.94-3.22 0-4.53 1.44-.8 2.32 1 3 3.77 3 16.54 13.39 54.35 40.77 54.36 12.1 0 13.67-5.43 13.59-9.06-.29-7.37-13.11-19.13-27.17-37-1.58-1.7-2.16-4.26-1.51-5.29 1.45-.79 2 1 3 2.27 14.29 18.46 33.09 38.77 51.32 49.07 5.07 3 11.34 2.14 11.32-3.77 0-4.17-6.09-6-12.07-9.06-22.31-12.41-41.4-35.16-53.59-52.1-2.06-2.88-2.28-3.74-1.51-4.53 1.1-.75 2.19.71 3.65 2.72 12.09 16.53 28.84 34.44 44.65 44.09 21.7 13 40.89 17.95 61.9 18.12 20.22.36 30.92-11.51 31-18.87s-8.57-10.41-14.75-12.32c-28.75-5.9-51.88-9.53-80.36-26.19-1.44-1.1-3-.68-3-3 1.36-1.37 2.26-.77 3.68.1 26.49 13.77 58.76 23.91 85.39 24.06 15-.1 21.26-3.53 21.13-9.06-.68-10.15-9.07-1.39-27.93-1.51-32.52 0-66.4-14.19-88.31-27.93-1.38-1.06-3.65-1.82-3-3.78 1.31-1.35 3.45 0 5.29 1.51 23.2 14.4 52.48 24.34 81.52 25.67 23-.65 36.81-7.56 37-21.89 0-8.93-6.57-13.12-18.11-12.08-23.59 1.17-44.47 1-67.94-6-1.68-.12-3.26-.36-3.42-2.41 1.13-1.32 2-1.15 3.42-.61 14.62 3.91 31.37 5.18 45.29 5.28 17-.22 41.16-.31 41.52-12.08 0-4.2-1.76-4.64-5.29-4.53-9.3.33-22.21 8.9-44.48 7.48-16.31-1-21 .3-57.42-7.48-2.57-.81-5.25-.53-4.53-3 .59-1.58 2.19-1.26 4.53-.75 15.89 4.17 41.8 7 57.37 6.79 17.22.32 51.94-6.82 52.08-29.44-.06-11.68-5.13-15.22-15.1-14.35-27.05 3.42-39.62 11.26-66.42 12.08-4.38 0-6.37 0-6.79-1.51.15-1.53 4-1.12 6-1.51 30.41-2.59 69.23-12.06 77-22.65 2.78-3.7 5-5.84 2.26-10.57-2.28-3-6.93-1.84-9.81 0-7.52 4.9-15.66 10.51-24.16 14.35-27 9.89-44.56 13.61-74.67 16.16-1.67 0-6.08 0-6.09-1.82.17-1.77 2.2-1.18 6-1.51 49.53-6 68.31-11.07 89.07-28.69 10.68-8 16.5-13.78 16.6-27.93.1-17.59-13.7-20.6-24-15.12-31.72 23.32-50.85 34.76-83.28 45-1.39.34-2.64.58-2.93-.48s.8-1.13 2-1.74c11.76-4.57 24.69-10.39 32.07-17.7 3.53-3.9 9.92-13.39 6-17.74-8.79-5-16 11-21.91 16.8-9.71 8.28-19 13.6-31 20.38-1.06.33-2.35.93-3 0-.37-.64.59-1.54 1.51-2.26 7.47-4.67 15.52-9.22 18.56-16.35 2.84-5.89 4-16.15-1.2-19.13-5.11-2.75-9.5-1.08-12.83 3.77-5.52 8.67-8 20-17.36 27.93-6.63 5.63-27.28 9.12-27.93 22.65-.17 10.16 10.35 13.21 8.3 24.92 3.16-.67 3.94-3 4.53-6 10.79 19-2.63 40.32-30.19 34.73 2.92-1 5.2-1.45 7.55-3-15.06-1.22-25.76-15.09-27.93-21.9 2.84.7 7 2.33 9.81 3-5.76-7.7-10.77-11.83-11.32-24.16.29-23.8 13.35-36.58 36.58-41.78-5.61-1.31-11.43-.65-13.94-.5 4.53-9 31.23-14.22 32.46-4.52 2.6 0 3.93-3.85 3.77-7.55-.17-8.9-9.37-8.85-19.62-8.31 1.39-6.32-6.4-8.2-10.57-8.3-12.36 1.09-20.89 5.86-35.47 6.79 1.63 4.11 6.1 4.7 10.56 5.29-10.52 5.57-19.5 11-22.64 19.62 4.24-1.57 5.27-3.42 8.3-3-6.49 6.92-10.63 10.22-14.34 30.2-3.86-14.78-6.23-21.72-15.1-30.53l8.8 3.07c-11.19-16.27-15.1-14.07-22.38-19.34 4.86-.1 7.06-1.54 10.23-4.94-17.44-2.33-23.42-5.57-35.14-6.39-5.65-.12-11.7.66-11.89 8.05-8.31.38-19.75-1.22-18.85 9.32.23 2.83 1.79 6.71 3.54 7.52 5.28-12.34 26.93-4.08 33.69 3.14-1.75.29-10.45-1.87-14.68 1.25 18.19 3.3 30.92 12.32 35.36 29.61 2.38 12.26.45 27-9.06 34.73 3.88.34 6.22-.25 9.06-2.27-2.26 10.49-10.78 20-27.27 22.11a21.46 21.46 0 0 0 7.65 3.56c-25.23 7.58-42.85-17.47-30.2-36.24-.73 5.59.81 7.64 4.53 8.31-1.59-11.51 7.49-15.12 7.55-24.92s-2.94-9.11-5.78-11.37c-8-5.89-14-5.56-22.15-11.28-9.39-8-13.35-20.77-18.87-29.44-2.39-3.91-7.34-4.54-11.32-2.26-6 4.77-4.91 11.09-1.51 18.11 3 7.14 11.4 12.7 18.87 17.37.92.72 1.88 1.62 1.51 2.26-.67.93-2 .33-3 0-12-6.78-21.24-12.1-30.94-20.38-7.48-5.84-14.61-21.58-21.89-16.61-4 4.35.43 14.22 7.54 18.87 8.9 7.31 18.69 11.81 30.46 16.38 1.21.61 2.17.8 2 1.74s-3 .82-4.43.48c-16.22-5.14-27.3-9.65-40.1-16.33-18.58-9.01-37.23-29.59-52.1-30.28z"/>
    <path fill="#3b91db" d="M785.44 542.67c-.19 1.09-1.73 1.73-3.44 1.42s-2.94-1.45-2.75-2.54 1.72-1.73 3.44-1.42 2.94 1.44 2.75 2.54"/>
    <path fill="none" stroke="#3b91db" stroke-miterlimit="10" stroke-width="2" d="M785.44 542.67c-.19 1.09-1.73 1.73-3.44 1.42s-2.94-1.45-2.75-2.54 1.72-1.73 3.44-1.42 2.94 1.44 2.75 2.54z"/>
    <path fill="#3b91db" d="M877.32 542.3c.19 1.09 1.73 1.73 3.44 1.42s2.94-1.45 2.75-2.54-1.72-1.73-3.44-1.42-2.94 1.44-2.75 2.54"/>
    <path fill="none" stroke="#3b91db" stroke-miterlimit="10" stroke-width="2" d="M877.32 542.3c.19 1.09 1.73 1.73 3.44 1.42s2.94-1.45 2.75-2.54-1.72-1.73-3.44-1.42-2.94 1.44-2.75 2.54z"/>
  </g>
  <path fill="#fff" d="M694.21 830.56h67.21v296.8h-67.21z"/>
  <path fill="none" stroke="#3b91db" stroke-width="5" d="M694.21 830.56h67.21v296.8h-67.21z"/>
  <path fill="#3b91db" d="M723.11 856.23h10.16v23.39h-10.16z"/>
  <g clip-path="url(#a)">
    <path fill="#fff" d="M798.64 830.55v69.08h68v-69.08h-68"/>
    <path fill="none" stroke="#3b91db" stroke-width="5" d="M798.64 830.55v69.08h68v-69.08z"/>
  </g>
  <path fill="#fff" d="M902.12 830.56h66.48v296.8h-66.48z"/>
  <path fill="none" stroke="#3b91db" stroke-width="5" d="M902.12 830.56h66.48v296.8h-66.48z"/>
  <g clip-path="url(#a)">
    <path fill="#fff" d="M769.57 822.81v-51.15h-15.48v24.66h-17.62v-24.66h-18.75v24.66h-17.24v-24.66h-15.66v51.11l7.88 8.85h69.49l7.38-8.81"/>
    <path fill="none" stroke="#3b91db" stroke-width="5" d="M769.57 822.81v-51.15h-15.48v24.66h-17.62v-24.66h-18.75v24.66h-17.24v-24.66h-15.66v51.11l7.88 8.85h69.49z"/>
  </g>
  <path fill="#3b91db" d="M931.01 856.23h10.16v23.39h-10.16z"/>
  <g clip-path="url(#a)">
    <path fill="#fff" d="M875.44 822.81v-51.15h-15.49v24.66h-17.57v-24.66h-18.79v24.66h-17.21v-24.66h-15.69v51.11l7.88 8.85h69.49l7.38-8.81"/>
    <path fill="none" stroke="#3b91db" stroke-width="5" d="M875.44 822.81v-51.15h-15.49v24.66h-17.57v-24.66h-18.79v24.66h-17.21v-24.66h-15.69v51.11l7.88 8.85h69.49z"/>
    <path fill="#fff" d="M977.94 822.81v-51.15h-15.49v24.66h-17.62v-24.66h-18.75v24.66h-17.24v-24.66h-15.65v51.11l7.87 8.85h69.5l7.38-8.81"/>
    <path fill="none" stroke="#3b91db" stroke-width="5" d="M977.94 822.81v-51.15h-15.49v24.66h-17.62v-24.66h-18.75v24.66h-17.24v-24.66h-15.65v51.11l7.87 8.85h69.5z"/>
  </g>
  <path fill="#fff" d="M902.55 1114.58v-257.1H892.2v24.41h-13.12v-24.41h-19.39v24.41h-17.96v-24.41h-19.39v24.41h-17.2v-24.41h-18.63v24.41h-14.78v-24.41h-10.38v257.1h141.2z"/>
  <path fill="none" stroke="#3b91db" stroke-width="5" d="M902.55 1114.58v-257.1H892.2v24.41h-13.12v-24.41h-19.39v24.41h-17.96v-24.41h-19.39v24.41h-17.2v-24.41h-18.63v24.41h-14.78v-24.41h-10.38v257.1h141.2zM789.85 818.11h86.63M892.27 818.11h86.64M683.58 818.11h86.64"/>
  <path fill="#fff" d="M1185.51 684.34l-106.99 686.5 62.06 9.81 108.99-686.18-64.06-10.13z"/>
  <path fill="none" stroke="#3b91db" stroke-width="8" d="M1185.51 684.34l-106.99 686.5 62.06 9.81 108.99-686.18-64.06-10.13z"/>
  <path fill="#fff" d="M1245.48 460.41l-36.44 227.69 17.47 2.02 36.44-227.69-17.47-2.02z"/>
  <path fill="none" stroke="#3b91db" stroke-width="8" d="M1245.48 460.41l-36.44 227.69 17.47 2.02 36.44-227.69-17.47-2.02z"/>
  <path fill="#fff" d="M1146.92 765.86l-3.9 24.87 113.8 18.17 3.91-24.88-113.81-18.16z"/>
  <path fill="none" stroke="#3b91db" stroke-width="8" d="M1146.92 765.86l-3.9 24.87 113.8 18.17 3.91-24.88-113.81-18.16z"/>
  <path fill="#fff" d="M1114.41 851.04l-4.05 25.78 150.91 24.08 4.05-25.79-150.91-24.07z"/>
  <path fill="none" stroke="#3b91db" stroke-width="8" d="M1114.41 851.04l-4.05 25.78 150.91 24.08 4.05-25.79-150.91-24.07z"/>
  <path fill="#fff" d="M1247.43 1015l-161.9-25.68-32.81 49.65 14.24 42.17 172.44 27.36 26.55-35.7-18.52-57.8z"/>
  <path fill="none" stroke="#3b91db" stroke-width="8" d="M1247.43 1015l-161.9-25.68-32.81 49.65 14.24 42.17 172.44 27.36 26.55-35.7-18.52-57.8zM1056.17 1038.77l206.42 33.79"/>
  <path fill="#fff" d="M367.82 476.31l89.16 632.16 19.24-2.7-89.15-632.15-19.25 2.69z"/>
  <path fill="none" stroke="#3b91db" stroke-width="8" d="M367.82 476.31l89.16 632.16 19.24-2.7-89.15-632.15-19.25 2.69z"/>
  <path fill="#fff" d="M410.72 470.28l89.16 632.16 19.24-2.7-89.15-632.15-19.25 2.69z"/>
  <path fill="none" stroke="#3b91db" stroke-width="8" d="M410.72 470.28l89.16 632.16 19.24-2.7-89.15-632.15-19.25 2.69z"/>
  <path fill="#fff" d="M453.62 464.25l89.15 632.16 19.25-2.7-89.15-632.15-19.25 2.69z"/>
  <path fill="none" stroke="#3b91db" stroke-width="8" d="M453.62 464.25l89.15 632.16 19.25-2.7-89.15-632.15-19.25 2.69z"/>
  <path fill="#fff" d="M429.737 1089.843l153.072-21.54 53.463 379.927-153.072 21.54z"/>
  <path fill="none" stroke="#3b91db" stroke-width="8" d="M429.737 1089.843l153.072-21.54 53.463 379.927-153.072 21.54z"/>
  <path fill="#fff" d="M429.69 1089.99l6.54 46.76 153.18-21.63-6.54-46.76-153.18 21.63z"/>
  <path fill="none" stroke="#3b91db" stroke-width="8" d="M429.69 1089.99l6.54 46.76 153.18-21.63-6.54-46.76-153.18 21.63z"/>
  <path fill="#fff" d="M427.17 1021.29l3.81 27.33 139.18-19.72-3.81-27.32-139.18 19.71z"/>
  <path fill="none" stroke="#3b91db" stroke-width="8" d="M427.17 1021.29l3.81 27.33 139.18-19.72-3.81-27.32-139.18 19.71z"/>
  <path fill="#fff" d="M403.6 853.58l3.81 27.32 139.18-19.72-3.82-27.32-139.17 19.72z"/>
  <path fill="none" stroke="#3b91db" stroke-width="8" d="M403.6 853.58l3.81 27.32 139.18-19.72-3.82-27.32-139.17 19.72z"/>
  <path fill="#fff" d="M380.02 685.85l3.82 27.33 139.18-19.72-3.82-27.32-139.18 19.71z"/>
  <path fill="none" stroke="#3b91db" stroke-width="8" d="M380.02 685.85l3.82 27.33 139.18-19.72-3.82-27.32-139.18 19.71z"/>
  <path fill="#fff" d="M356.67 519.66l3.81 27.32 139.18-19.71-3.82-27.33-139.17 19.72z"/>
  <path fill="none" stroke="#3b91db" stroke-width="8" d="M356.67 519.66l3.81 27.32 139.18-19.71-3.82-27.33-139.17 19.72z"/>
  <path fill="#fff" d="M567.6 1240.76h527.57V1440H567.6zM591.78 1135.39l-25.28 101.55h529.77l-25.29-101.55h-479.2z"/>
  <path fill="none" stroke="#3b91db" stroke-width="8" d="M591.78 1135.39l-25.28 101.55h529.77l-25.29-101.55h-479.2z"/>
  <path fill="#fff" d="M653.61 1063.82h355.56v167.91H653.61z"/>
  <path fill="none" stroke="#3b91db" stroke-width="8" d="M653.61 1063.82h355.56v167.91H653.61z"/>
  <path fill="#fff" d="M640.38 1148.12h374.84v85H640.38zM669.78 951.78l-16.58 113.01h356.37l-16.58-113.01H669.78z"/>
  <path fill="none" stroke="#3b91db" stroke-width="8" d="M669.78 951.78l-16.58 113.01h356.37l-16.58-113.01H669.78z"/>
  <path fill="#fff" d="M741.24 936.48h180.28v35.11H741.24z"/>
  <path fill="none" stroke="#3b91db" stroke-width="8" d="M741.24 936.48h180.28v35.11H741.24z"/>
  <path fill="#fff" d="M828.44 1038.78l-180.65 108.06h357.94l-177.29-108.06z"/>
  <path fill="none" stroke="#3b91db" stroke-width="8" d="M828.44 1038.78l-180.65 108.06h357.94l-177.29-108.06z"/>
  <path fill="#fff" d="M830.9 1156.74l-126.12 79.63h249.88l-123.76-79.63z"/>
  <path fill="none" stroke="#3b91db" stroke-width="8" d="M830.9 1156.74l-126.12 79.63h249.88l-123.76-79.63z"/>
  <path fill="#fff" d="M931.32 1237.7h22v192h-22z"/>
  <path fill="none" stroke="#3b91db" stroke-width="8" d="M931.32 1237.7h22v192h-22z"/>
  <path fill="#fff" d="M707.05 1237.7h22v192h-22z"/>
  <path fill="none" stroke="#3b91db" stroke-width="8" d="M707.05 1237.7h22v192h-22z"/>
  <path fill="none" stroke="#3b91db" stroke-width="10" d="M638.48 1150.62v86.58M1014.78 1150.62v86.58M566.55 1240.76v132.85M1096.22 1240.76v132.85"/>
  <path fill="#fff" d="M781.81 1237.7h22v192h-22z"/>
  <path fill="none" stroke="#3b91db" stroke-width="8" d="M781.81 1237.7h22v192h-22z"/>
  <path fill="#fff" d="M856.56 1237.7h22v192h-22z"/>
  <path fill="none" stroke="#3b91db" stroke-width="8" d="M856.56 1237.7h22v192h-22z"/>
  <path fill="#fff" d="M1295.82 1358.71l-58.13 71.39 58.13 70.85h-238.07v-142.24h238.07z"/>
  <path fill="none" stroke="#3b91db" stroke-width="10" d="M1295.82 1358.71l-58.13 71.39 58.13 70.85h-238.07v-142.24h238.07z"/>
  <path fill="#fff" d="M1121.53 1385.99v153.54l-63.21-24.95v-153.54l63.21 24.95z"/>
  <path fill="none" stroke="#3b91db" stroke-width="10" d="M1121.53 1385.99v153.54l-63.21-24.95v-153.54l63.21 24.95z"/>
  <path fill="#fff" d="M366.95 1358.88l58.13 71.39-58.13 70.86h238.06v-142.25H366.95z"/>
  <path fill="none" stroke="#3b91db" stroke-width="10" d="M366.95 1358.88l58.13 71.39-58.13 70.86h238.06v-142.25H366.95z"/>
  <path fill="#fff" d="M543.08 1385.81v150.98l63.2-24.53v-150.98l-63.2 24.53z"/>
  <path fill="none" stroke="#3b91db" stroke-width="10" d="M543.08 1385.81v150.98l63.2-24.53v-150.98l-63.2 24.53z"/>
  <path fill="#fff" d="M541.49 1388.33h582.34v155.75H541.49z"/>
  <path fill="none" stroke="#3b91db" stroke-width="10" d="M541.49 1388.33h582.34v155.75H541.49z"/>
  <g fill="#3b91db" clip-path="url(#a)">
    <path d="M996.77 1460.78q4-5.07 11.2-5.07 9 0 13.54 7.48V1487q-4.35 7.67-13.64 7.67-7.17 0-11.15-5t-4-13.87q0-9.94 4-15m-7.67 34.11a20.32 20.32 0 0 0 16.32 7.39q10.2 0 16.09-6.18v4.49q0 6.66-4 10.32t-11.17 3.67a19.9 19.9 0 0 1-15.45-7.09l-5.1 5.35a20.64 20.64 0 0 0 9.08 6.61 32 32 0 0 0 12.16 2.42q11.14 0 17.75-5.84t6.61-16v-51h-9l-.48 5.79q-5.9-6.75-16.4-6.75-10.25 0-16.45 7.21t-6.21 19.42q0 12.74 6.23 20.12m-10.44-46.08a11 11 0 0 0-4.36-.67 15.66 15.66 0 0 0-13.69 7l-.16-6h-9.55v52.21h9.82v-37.06q3.45-7.47 13.11-7.48a33.07 33.07 0 0 1 4.83.34zm-50 52.5h9.34v-52.16h-9.82v38q-3.71 7.62-15 7.62-10.62 0-10.62-11.87v-33.75h-9.82v34q.06 9.51 4.86 14.36t14 4.85q11.1 0 16.83-6.13zm-59.9-11.58q-3.93 5-11 5-9.55 0-14.06-8.2v-22.59q4.24-8.19 14-8.2 7.26 0 11.14 5t3.88 14.09q0 10-3.93 15m13.75-14.72q0-12.49-6-19.68t-16.43-7.19q-10.46 0-16.4 6.7v-27.65h-9.82v74.12h9l.48-6q5.94 7 16.82 7 10.2 0 16.25-7.27t6-19.22zm-72.39 17.93a17.05 17.05 0 0 1-8.94 2q-6.06 0-9.74-2.63a9 9 0 0 1-4-7.12h-9.72a14.05 14.05 0 0 0 3 8.62 19.6 19.6 0 0 0 8.31 6.2 31.44 31.44 0 0 0 12.21 2.22q9.81 0 16-4.23t6.16-11.21a11.46 11.46 0 0 0-2.2-7.12 17.22 17.22 0 0 0-6.77-5 57 57 0 0 0-11.91-3.57c-4.91-1-8.29-2-10.17-3.13a5.3 5.3 0 0 1-2.81-4.88 6.52 6.52 0 0 1 3-5.55c2-1.41 4.81-2.12 8.39-2.12a13.69 13.69 0 0 1 8.62 2.65 7.81 7.81 0 0 1 3.43 6.33h9.87a14.11 14.11 0 0 0-6.08-11.73q-6.08-4.59-15.84-4.58-9.29 0-15.26 4.44t-6 10.85a10.81 10.81 0 0 0 2.09 6.66 16.56 16.56 0 0 0 6.48 4.83 52.71 52.71 0 0 0 11.84 3.47q7.46 1.45 10.45 3.45a6.39 6.39 0 0 1 3 5.62 6.19 6.19 0 0 1-3.37 5.48m-51.91-54.07a5.86 5.86 0 0 0 4.32 1.45 6 6 0 0 0 4.36-1.45 4.83 4.83 0 0 0 1.48-3.62 5 5 0 0 0-1.48-3.66 5.9 5.9 0 0 0-4.36-1.5 5.76 5.76 0 0 0-4.32 1.5 5 5 0 0 0-1.46 3.66 4.85 4.85 0 0 0 1.46 3.62m9.17 10.23h-9.82v52.21h9.82zm-32.5 52.21h9.34v-52.21h-9.84v38q-3.71 7.62-15 7.62-10.62 0-10.62-11.87v-33.75h-9.82v34q0 9.51 4.86 14.36t14 4.85q11.1 0 16.83-6.13zm-81.42-62.68q11.35.09 17.54 6.74t6.19 18.62v4.1q0 12.32-6.56 19t-18.34 6.67h-10.72v-55.11zm-.69 62.68a40.28 40.28 0 0 0 18.23-4.1 28.31 28.31 0 0 0 12-11.48 34.81 34.81 0 0 0 4.22-17.42v-4.49a34.73 34.73 0 0 0-4.27-17.18 28.63 28.63 0 0 0-12-11.53 38 38 0 0 0-17.83-4.06h-21.74v70.26zM700.25 357.57v27.5c0 11.28 7.22 19 18.64 19h23.34c.52 0 1.41-.93 1.41-2v-11.31c0-1-1.31-1.82-2.35-1.82H721.5c-4.88 0-6.16-2.3-6.16-7.88v-32.3c0-11.38-4.63-15.57-10.26-17.63 5.64-2.06 10.26-6.24 10.26-17.62V281c0-5.48 1.1-7.12 6.16-7.12h20.73a2 2 0 0 0 1.42-1.89v-11.35c0-1-1.32-1.88-2.36-1.88h-22.4c-11.42 0-18.64 7.39-18.64 18.43v30.6s-.37 5.66-.65 7.59c-.71 5.1-7 9.47-10.83 9.41h-5.94c-1 0-1.45.82-1.45 1.86V338c0 1 .42 1.93 1.45 1.93h5.42c4.94-.07 11.18 4.09 11.66 10.3.14 1.8.34 7.38.34 7.38M809.68 387c0 1-1.35 2-2.39 2H777.6V273.85h29.69c1 0 2.39.84 2.39 1.88zm15.09 15.09V260.64c0-1-1.36-1.88-2.39-1.88h-58.46c-1 0-1.41.85-1.41 1.88v141.43c0 1 .37 2 1.41 2h58.46c1 0 2.39-.93 2.39-2M892.09 331.36c0 30.74-13.61 55.92-33.35 57.44V273.94c19.74 1.51 33.35 26.68 33.35 57.42m15.09 0c0-39.14-21-71.12-48.44-72.54v-.06H845c-1 0-1.36.85-1.36 1.88v141.43c0 1 .33 2 1.36 2h13.74v-.15c27.39-1.42 48.44-33.4 48.44-72.53M978.89 324.79h-28.77c1.48-3.77 3-6.29 3-11.28V281c0-5.48 1-7.12 6-7.12h20.73a2.05 2.05 0 0 0 1.53-1.88v-11.36c0-1-1.45-1.88-2.49-1.88h-22.4c-11.42 0-18.51 7.39-18.51 18.43v30.6a47.2 47.2 0 0 1-1.07 7.58c-1.46 4.94-4.72 7.54-10.54 9.42h-5.93c-1 0-1.32.82-1.32 1.85V338c0 1 .28 1.93 1.32 1.93h58.45c1 0 2.49-.9 2.49-1.93v-11.36c0-1-1.45-1.85-2.49-1.85"/>
    <path d="M951.17 339.89h-25.32c7 1.89 9.93 4.38 11.35 10.44a42.68 42.68 0 0 1 .78 7.24v27.5c0 11.28 7.09 19 18.51 19h23.34a2.15 2.15 0 0 0 1.55-2v-11.31c0-1-1.45-1.82-2.49-1.82H959.1c-4.88 0-6-2.07-6-7.65v-32.53a23 23 0 0 0-1.91-8.87M877.03 445.7a36.91 36.91 0 0 0-6-.49 12.63 12.63 0 0 0-4.71.77 9 9 0 0 0-3.34 2.32 18.08 18.08 0 0 0-2.87 4.82h-.15a36.2 36.2 0 0 0-1.41-7.33h-5a50.3 50.3 0 0 1 1.13 5.92 41.84 41.84 0 0 1 .4 5.24v20.54h5.27v-14.88a13.84 13.84 0 0 1 2.9-9 9.36 9.36 0 0 1 7.62-3.54 37.38 37.38 0 0 1 6.21.56zm-39 25.35q-2.09 3.13-6.74 3.13a7.08 7.08 0 0 1-6.33-3.21q-2.11-3.21-2.11-9.36t2.11-9.34c1.41-2.11 3.62-3.17 6.65-3.17s5.15 1 6.49 3.11 2 5.2 2 9.4-.7 7.35-2.08 9.44m4.13-21.77q-3.5-4.08-10.64-4.07-6.79 0-10.5 4.11t-3.63 12.29q0 7.92 3.62 12.19t10.38 4.28q6.94 0 10.62-4.24t3.67-12.23q0-8.26-3.48-12.33m-30.48.67v-4.16h-14.33v-.29a10.17 10.17 0 0 1 .72-4.25 4.35 4.35 0 0 1 2.27-2.2 12.1 12.1 0 0 1 4.6-.67c.92 0 2.27.06 4.06.18s3 .22 3.56.32v-4.25a36 36 0 0 0-3.68-.43 62.6 62.6 0 0 0-4.55-.19q-6.6 0-9.42 2.52c-1.89 1.68-2.83 4.53-2.83 8.53v.73h-7.73V450h7.68v27.54h5.32V450z"/>
  </g>
  <path fill="none" stroke="#3b91db" stroke-width="15" d="M82.42 960h200M82.42 889.13h150M82.42 1030.87h150M1579.61 960h-200M1579.61 889.13h-150M1579.61 1030.87h-150"/>
</svg>
